<?xml version="1.0" encoding="UTF-8" standalone="no"?>
<!DOCTYPE svg PUBLIC "-//W3C//DTD SVG 1.1//EN"
 "http://www.w3.org/Graphics/SVG/1.1/DTD/svg11.dtd">
<!-- Generated by graphviz version 7.1.0 (0)
 -->
<!-- Pages: 1 -->
<svg width="528pt" height="188pt"
 viewBox="0.00 0.00 528.04 188.00" xmlns="http://www.w3.org/2000/svg" xmlns:xlink="http://www.w3.org/1999/xlink">
<g id="graph0" class="graph" transform="scale(1 1) rotate(0) translate(4 184)">
<polygon fill="white" stroke="none" points="-4,4 -4,-184 524.04,-184 524.04,4 -4,4"/>
<!-- 0 -->
<g id="node1" class="node">
<title>0</title>
<ellipse fill="none" stroke="black" cx="370.19" cy="-162" rx="138.38" ry="18"/>
<text text-anchor="middle" x="370.19" y="-158.3" font-family="Times,serif" font-size="14.00">Buildable(&quot;/miq/bootstrap&quot;)</text>
</g>
<!-- 1 -->
<g id="node2" class="node">
<title>1</title>
<ellipse fill="none" stroke="black" cx="109.19" cy="-90" rx="109.38" ry="18"/>
<text text-anchor="middle" x="109.19" y="-86.3" font-family="Times,serif" font-size="14.00">Buildable(&quot;/miq/gcc&quot;)</text>
</g>
<!-- 0&#45;&gt;1 -->
<g id="edge1" class="edge">
<title>0&#45;&gt;1</title>
<path fill="none" stroke="black" d="M311.62,-145.29C271.33,-134.49 217.74,-120.11 175.83,-108.87"/>
<polygon fill="black" stroke="black" points="176.91,-105.54 166.35,-106.33 175.1,-112.3 176.91,-105.54"/>
</g>
<!-- 2 -->
<g id="node3" class="node">
<title>2</title>
<ellipse fill="none" stroke="black" cx="370.19" cy="-90" rx="133.78" ry="18"/>
<text text-anchor="middle" x="370.19" y="-86.3" font-family="Times,serif" font-size="14.00">Buildable(&quot;/miq/coreutils&quot;)</text>
</g>
<!-- 0&#45;&gt;2 -->
<g id="edge2" class="edge">
<title>0&#45;&gt;2</title>
<path fill="none" stroke="black" d="M370.19,-143.7C370.19,-136.41 370.19,-127.73 370.19,-119.54"/>
<polygon fill="black" stroke="black" points="373.69,-119.62 370.19,-109.62 366.69,-119.62 373.69,-119.62"/>
</g>
<!-- 3 -->
<g id="node4" class="node">
<title>3</title>
<ellipse fill="none" stroke="black" cx="370.19" cy="-18" rx="116.18" ry="18"/>
<text text-anchor="middle" x="370.19" y="-14.3" font-family="Times,serif" font-size="14.00">Buildable(&quot;/miq/glibc&quot;)</text>
</g>
<!-- 0&#45;&gt;3 -->
<g id="edge5" class="edge">
<title>0&#45;&gt;3</title>
<path fill="none" stroke="black" d="M455.8,-147.59C478.11,-139.78 499.66,-127.45 513.19,-108 522.33,-94.87 522.33,-85.13 513.19,-72 501.08,-54.59 482.54,-42.89 462.79,-35.02"/>
<polygon fill="black" stroke="black" points="464.07,-31.77 453.48,-31.66 461.7,-38.35 464.07,-31.77"/>
</g>
<!-- 1&#45;&gt;3 -->
<g id="edge3" class="edge">
<title>1&#45;&gt;3</title>
<path fill="none" stroke="black" d="M164.86,-74.07C205.21,-63.25 259.99,-48.56 302.81,-37.07"/>
<polygon fill="black" stroke="black" points="303.49,-40.51 312.24,-34.54 301.68,-33.75 303.49,-40.51"/>
</g>
<!-- 2&#45;&gt;3 -->
<g id="edge4" class="edge">
<title>2&#45;&gt;3</title>
<path fill="none" stroke="black" d="M370.19,-71.7C370.19,-64.41 370.19,-55.73 370.19,-47.54"/>
<polygon fill="black" stroke="black" points="373.69,-47.62 370.19,-37.62 366.69,-47.62 373.69,-47.62"/>
</g>
</g>
</svg>
